<?xml version="1.0" standalone="no"?>
<!DOCTYPE svg PUBLIC "-//W3C//DTD SVG 20010904//EN"
 "http://www.w3.org/TR/2001/REC-SVG-20010904/DTD/svg10.dtd">
<svg version="1.0" xmlns="http://www.w3.org/2000/svg"
 width="803.000000pt" height="803.000000pt" viewBox="0 0 803.000000 803.000000"
 preserveAspectRatio="xMidYMid meet">
<metadata>
Created by potrace 1.11, written by Peter Selinger 2001-2013
</metadata>
<g transform="translate(0.000000,803.000000) scale(0.100000,-0.100000)"
fill="#000000" stroke="none">
<path d="M4065 7715 c-141 -31 -258 -84 -342 -156 -45 -38 -151 -172 -203
-256 -47 -76 -62 -87 -140 -97 -62 -9 -140 -35 -172 -59 -17 -13 -40 -49 -58
-94 -38 -92 -46 -101 -148 -175 -45 -32 -94 -75 -109 -95 -26 -33 -27 -41 -28
-157 -2 -113 -4 -126 -34 -194 -18 -41 -34 -83 -37 -95 -2 -12 -7 -35 -9 -51
-8 -40 -28 -75 -70 -121 -31 -34 -93 -138 -96 -162 -1 -5 -6 -19 -11 -33 -5
-14 -9 -26 -8 -28 1 -3 -3 -7 -61 -76 -59 -71 -199 -282 -212 -321 -17 -47
-45 -76 -117 -120 -35 -21 -79 -56 -99 -78 -45 -50 -101 -134 -101 -153 0 -8
-3 -14 -8 -14 -4 0 -13 -14 -21 -31 -8 -17 -27 -46 -43 -65 -16 -18 -28 -35
-26 -38 2 -3 -4 -13 -12 -23 -9 -10 -17 -22 -18 -28 -2 -5 -5 -20 -9 -32 -3
-13 -9 -23 -15 -23 -5 0 -6 -4 -3 -10 3 -5 1 -10 -5 -10 -6 0 -9 -4 -5 -9 3
-6 -3 -14 -12 -20 -10 -6 -14 -11 -9 -11 5 0 3 -7 -4 -15 -7 -8 -17 -12 -24
-8 -6 3 -8 3 -4 -2 10 -10 -11 -37 -23 -29 -5 3 -6 -2 -3 -10 3 -9 2 -16 -3
-16 -14 0 -42 -92 -39 -124 2 -14 -1 -26 -5 -26 -5 0 -9 -12 -9 -26 0 -14 -5
-34 -10 -45 -8 -14 -7 -19 2 -19 9 0 9 -3 -2 -10 -9 -6 -10 -10 -3 -10 8 0 9
-9 3 -30 -5 -16 -5 -30 -1 -30 4 0 8 -19 10 -42 5 -75 8 -92 20 -123 24 -58
42 -110 43 -122 1 -7 5 -13 9 -13 4 0 24 -17 44 -37 21 -21 38 -37 39 -36 3 6
46 -10 46 -17 0 -5 18 -6 40 -4 23 2 40 -1 40 -7 0 -6 -4 -8 -9 -4 -5 3 -12 1
-16 -4 -3 -6 4 -8 16 -6 15 3 19 0 15 -11 -3 -9 -2 -12 5 -9 6 4 8 13 5 21 -3
8 1 14 9 14 8 0 15 -8 15 -17 0 -15 2 -14 16 3 12 15 15 16 10 2 -3 -10 4 -22
20 -32 13 -9 24 -12 24 -6 0 5 -5 10 -10 10 -6 0 -5 8 2 19 14 23 29 18 22 -7
-3 -10 0 -9 8 4 10 18 15 19 25 9 6 -7 9 -16 5 -20 -7 -8 48 24 58 34 3 2 -4
1 -15 -3 -16 -6 -17 -5 -8 5 9 9 15 9 27 0 11 -9 15 -9 18 0 3 9 10 9 28 -1
20 -11 25 -10 35 4 7 8 15 13 18 9 4 -3 14 0 24 8 11 9 14 10 9 2 -4 -8 -1
-13 9 -13 9 0 14 4 10 9 -3 6 3 8 13 6 9 -1 37 10 61 26 27 19 47 27 54 21 23
-18 46 -22 41 -7 -3 8 -11 12 -18 9 -7 -3 -13 2 -13 11 0 9 6 14 13 11 7 -3
15 1 18 9 3 8 14 18 24 24 16 8 21 7 26 -5 5 -12 1 -14 -17 -9 -17 5 -19 4 -7
-4 13 -10 8 -15 -12 -12 -5 0 -8 -4 -8 -9 0 -13 13 -13 26 0 6 6 21 12 34 15
24 5 60 32 60 46 0 4 -11 -3 -25 -17 -25 -25 -45 -25 -45 2 0 8 6 15 13 16 6
0 17 2 22 2 16 3 59 28 67 40 5 8 8 7 8 -1 0 -7 10 -12 23 -12 17 1 18 2 4 6
-9 2 -15 8 -12 13 3 5 13 6 22 3 10 -4 14 -2 9 5 -7 11 31 28 41 18 3 -3 30 8
59 23 49 28 64 30 64 9 0 -5 -5 -6 -12 -2 -6 4 -8 3 -5 -4 8 -12 32 -10 44 3
4 4 3 5 -3 2 -12 -7 -29 21 -19 31 5 5 40 -36 40 -48 0 -3 3 -10 7 -15 7 -11
21 -81 18 -91 -1 -4 4 -10 12 -15 10 -6 12 -40 10 -146 -1 -76 -5 -156 -8
-178 -3 -22 -7 -175 -9 -340 -2 -265 -10 -507 -20 -645 -2 -25 -6 -90 -10
-145 -3 -55 -8 -125 -11 -155 -3 -30 -8 -80 -10 -110 -2 -30 -6 -82 -9 -115
-6 -61 -11 -133 -19 -260 -2 -38 -9 -82 -15 -97 -6 -16 -9 -28 -6 -28 2 0 -2
-12 -10 -26 -15 -30 -12 -64 12 -114 20 -41 20 -40 30 -105 9 -57 9 -72 -1
-100 -30 -78 -35 -95 -32 -95 2 0 -4 -16 -13 -36 -26 -53 -19 -106 23 -170 20
-29 36 -58 36 -64 0 -6 -20 -48 -44 -93 -24 -45 -44 -85 -45 -89 0 -5 -1 -9
-2 -10 0 -2 -2 -14 -5 -27 -2 -14 -9 -30 -15 -38 -6 -7 -9 -13 -5 -13 3 0 0
-17 -8 -37 -15 -40 -26 -76 -77 -263 -37 -136 -45 -152 -102 -219 -24 -28 -44
-57 -45 -63 -2 -19 -10 -59 -17 -88 -4 -14 -8 -34 -9 -45 -2 -11 -4 -20 -5
-20 -3 0 -9 -24 -16 -60 -3 -11 -6 -27 -7 -35 -2 -8 -7 -21 -11 -27 -5 -7 -6
-13 -3 -13 2 0 0 -15 -5 -32 -6 -18 -12 -48 -15 -65 l-4 -33 1495 0 c822 0
1496 3 1496 8 1 4 2 25 3 47 2 27 11 49 28 68 27 29 43 79 47 151 1 15 4 16
15 6 8 -6 13 -17 10 -23 -2 -7 -6 -34 -8 -62 -5 -70 -16 -114 -37 -157 l-19
-37 222 2 c214 2 223 3 226 22 3 11 26 43 52 70 44 47 68 94 75 148 1 12 14
47 28 77 14 30 28 71 31 90 5 39 10 62 24 111 5 20 5 47 0 64 -16 56 -11 100
20 166 61 130 72 178 72 313 0 69 4 135 9 148 13 32 79 270 81 288 1 23 2 146
1 225 0 39 0 106 0 150 0 44 0 121 -1 170 -1 50 1 106 5 125 4 19 7 62 7 95 0
81 -11 414 -15 445 -2 14 1 39 5 55 5 17 11 46 14 65 9 57 21 115 24 115 1 0
3 7 5 15 2 8 6 29 10 45 7 34 16 95 19 140 1 17 4 35 7 40 11 21 -14 387 -36
520 -12 79 -17 111 -16 128 0 9 -4 17 -8 17 -4 0 -7 10 -8 23 -1 21 -3 34 -18
122 -4 22 -11 45 -16 51 -5 6 -7 13 -4 16 10 10 -18 139 -157 723 -7 28 -12
52 -13 55 0 3 -4 11 -8 18 -5 6 -6 12 -2 12 3 0 1 8 -4 19 -6 10 -13 33 -16
52 -3 18 -11 39 -17 46 -6 7 -7 13 -2 13 4 0 3 5 -4 12 -7 7 -12 17 -12 24 0
6 -10 33 -22 60 -12 27 -23 54 -24 59 -1 6 -16 40 -33 76 -36 76 -138 186
-236 253 -33 22 -62 41 -65 41 -3 1 -26 10 -52 22 -25 12 -56 24 -67 28 -21 6
-144 68 -266 133 -38 21 -88 45 -110 54 -22 9 -64 30 -92 47 -29 17 -53 28
-53 25 0 -2 -10 4 -22 16 -12 11 -25 20 -29 20 -17 0 -37 70 -38 130 0 36 -3
110 -6 165 -6 93 -4 110 30 240 46 179 47 252 5 420 -38 150 -34 136 -47 160
-6 11 -12 23 -12 27 -1 4 -11 29 -22 55 -12 27 -28 66 -36 88 -8 22 -19 49
-23 60 -5 11 -14 38 -21 60 -35 116 -151 286 -235 343 -48 33 -152 68 -269 91
-120 24 -202 25 -290 6z m-685 -641 c0 -3 -8 -19 -17 -35 -16 -27 -18 -27 -33
-11 -16 16 -15 18 9 34 28 18 41 22 41 12z m89 -1122 c26 -16 58 -33 72 -37
13 -4 29 -11 34 -15 6 -4 28 -11 50 -15 22 -4 45 -11 52 -17 6 -5 29 -11 49
-14 21 -3 40 -7 43 -9 10 -10 -35 -34 -65 -35 -16 0 -50 -10 -75 -22 -47 -23
-52 -24 -271 -19 -125 3 -147 8 -131 34 4 6 8 18 9 25 4 22 50 87 89 125 44
43 73 42 144 -1z m-1179 -1862 c0 -5 -4 -10 -10 -10 -5 0 -10 5 -10 10 0 6 5
10 10 10 6 0 10 -4 10 -10z m-205 -29 c-3 -6 -11 -11 -17 -11 -6 0 -6 6 2 15
14 17 26 13 15 -4z m85 9 c0 -5 -2 -10 -4 -10 -3 0 -8 5 -11 10 -3 6 -1 10 4
10 6 0 11 -4 11 -10z m3503 -1357 c2 -62 1 -113 -3 -113 -4 0 -5 -55 -3 -121
4 -130 -1 -168 -18 -136 -6 9 -7 22 -4 27 3 6 0 10 -7 10 -9 0 -10 2 -1 8 13
8 10 59 -8 118 -7 24 -9 49 -4 60 10 24 14 57 19 169 3 50 5 94 5 100 1 5 4 5
10 0 5 -6 11 -61 14 -122z m-17 -1305 c1 -38 4 -58 19 -139 2 -10 -3 -23 -11
-30 -8 -6 -14 -18 -14 -25 0 -8 -9 -14 -21 -14 -16 0 -19 4 -14 18 4 9 9 64
10 122 1 58 3 106 4 108 0 1 7 2 14 2 8 0 13 -15 13 -42z"/>
<path d="M1696 4697 c3 -10 9 -15 12 -12 3 3 0 11 -7 18 -10 9 -11 8 -5 -6z"/>
<path d="M2861 4327 c2 -1 13 -9 24 -17 19 -14 19 -14 6 3 -7 9 -18 17 -24 17
-6 0 -8 -1 -6 -3z"/>
<path d="M2831 4310 c-9 -5 -4 -7 13 -7 29 0 32 2 13 10 -8 3 -20 2 -26 -3z"/>
<path d="M2762 4280 c-7 -11 -9 -20 -4 -20 4 0 13 9 20 20 7 11 9 20 4 20 -4
0 -13 -9 -20 -20z"/>
<path d="M2807 4286 c5 -15 3 -17 -8 -11 -8 5 -11 4 -6 0 13 -15 36 -14 49 3
10 14 10 15 -2 5 -11 -10 -16 -9 -27 5 -12 16 -13 16 -6 -2z"/>
<path d="M2775 4251 c-9 -15 15 -25 28 -12 9 9 7 10 -7 5 -13 -5 -17 -4 -12 4
4 7 5 12 2 12 -3 0 -7 -4 -11 -9z"/>
<path d="M2672 4226 c-1 -15 1 -17 7 -7 5 7 15 17 22 22 10 6 8 8 -7 7 -12 -1
-21 -10 -22 -22z"/>
<path d="M2736 4235 c-3 -8 -1 -15 4 -15 6 0 10 7 10 15 0 8 -2 15 -4 15 -2 0
-6 -7 -10 -15z"/>
<path d="M2605 4220 c-3 -6 1 -7 9 -4 18 7 21 14 7 14 -6 0 -13 -4 -16 -10z"/>
<path d="M2650 4190 c0 -5 5 -10 10 -10 6 0 10 5 10 10 0 6 -4 10 -10 10 -5 0
-10 -4 -10 -10z"/>
<path d="M2619 4178 c-6 -18 -3 -46 3 -42 5 4 7 12 4 19 -3 8 0 16 7 19 9 3 9
5 0 5 -7 1 -13 0 -14 -1z"/>
<path d="M2591 4154 c0 -11 3 -14 6 -6 3 7 2 16 -1 19 -3 4 -6 -2 -5 -13z"/>
<path d="M2556 4137 c3 -10 9 -15 12 -12 3 3 0 11 -7 18 -10 9 -11 8 -5 -6z"/>
<path d="M2455 4120 c3 -5 8 -10 11 -10 2 0 4 5 4 10 0 6 -5 10 -11 10 -5 0
-7 -4 -4 -10z"/>
<path d="M2487 4117 c-3 -8 1 -14 8 -14 7 0 11 6 8 14 -3 7 -6 13 -8 13 -2 0
-5 -6 -8 -13z"/>
<path d="M2430 4110 c0 -5 5 -10 11 -10 5 0 7 5 4 10 -3 6 -8 10 -11 10 -2 0
-4 -4 -4 -10z"/>
<path d="M1854 4088 c-4 -7 -3 -10 1 -5 5 4 18 -1 29 -10 21 -18 21 -18 2 5
-22 26 -23 26 -32 10z"/>
<path d="M2376 4085 c-3 -9 -6 -22 -5 -28 0 -7 5 -1 10 12 5 13 8 26 5 28 -2
2 -6 -3 -10 -12z"/>
<path d="M2412 4095 c4 -4 0 -13 -9 -20 -13 -10 -14 -13 -2 -20 8 -5 11 -5 7
0 -4 4 0 13 9 20 13 10 14 13 2 20 -8 5 -11 5 -7 0z"/>
<path d="M2456 4091 c-3 -4 4 -17 17 -27 22 -19 22 -19 4 2 -9 11 -14 24 -10
27 3 4 4 7 0 7 -3 0 -8 -4 -11 -9z"/>
<path d="M1935 4071 c-3 -5 -2 -12 3 -15 5 -3 9 1 9 9 0 17 -3 19 -12 6z"/>
<path d="M2227 4066 c-9 -7 -17 -17 -17 -21 0 -4 6 -2 14 4 10 8 21 9 33 3 10
-5 24 -7 32 -4 8 3 11 0 7 -6 -3 -6 -2 -13 3 -16 5 -4 8 2 7 11 -2 11 -12 18
-26 19 -12 1 -25 6 -29 12 -4 7 -12 6 -24 -2z"/>
<path d="M2310 4071 c0 -6 4 -13 10 -16 6 -3 7 1 4 9 -7 18 -14 21 -14 7z"/>
<path d="M2336 4065 c4 -8 8 -15 10 -15 2 0 4 7 4 15 0 8 -4 15 -10 15 -5 0
-7 -7 -4 -15z"/>
<path d="M1955 4039 c-11 -16 -1 -19 13 -3 7 8 8 14 3 14 -5 0 -13 -5 -16 -11z"/>
<path d="M2132 4030 c0 -14 2 -19 5 -12 2 6 2 18 0 25 -3 6 -5 1 -5 -13z"/>
<path d="M2190 4041 c0 -7 -4 -10 -8 -7 -4 2 -9 -5 -9 -16 -2 -21 -2 -21 14 1
8 12 12 25 9 28 -3 4 -6 1 -6 -6z"/>
<path d="M2030 4029 c0 -5 5 -7 10 -4 6 3 10 8 10 11 0 2 -4 4 -10 4 -5 0 -10
-5 -10 -11z"/>
<path d="M2230 4032 c0 -5 7 -9 15 -9 8 0 12 4 9 9 -3 4 -9 8 -15 8 -5 0 -9
-4 -9 -8z"/>
</g>
</svg>
